<svg xmlns="http://www.w3.org/2000/svg" width="100.435" height="23.991" viewBox="0 0 100.435 23.991">
    <defs>
        <style>
            .cls-1{fill:#fff;fill-rule:evenodd}
        </style>
    </defs>
    <g id="Group_1151" transform="translate(-351.759 -65.956)">
        <path id="Path_841" d="M391.033 72.762a1.352 1.352 0 0 0-.138.009 1.308 1.308 0 0 0-.138-.009c-3.94 0-6.88 2.494-6.88 6.97v8.928h4.217v-8.22c0-2.18.869-3.323 2.8-3.36 1.933.038 2.8 1.18 2.8 3.36v8.22h4.218v-8.928c.002-4.476-2.939-6.97-6.879-6.97z" class="cls-1" transform="translate(4.48 0.949)"/>
        <path id="Rectangle_699" fill="#fff" d="M0 0H4.206V4.108H0z" opacity="0.5" transform="translate(405.17 67.436)"/>
        <path id="Path_842" d="M407.617 84.509a4.89 4.89 0 0 1-2.125.523c-1.57 0-2.341-.708-2.341-2.585V76.9h4.583v-4.2h-11.3l1.826 4.2h.678v6.38c0 3.786 2.525 5.573 5.974 5.573a9.592 9.592 0 0 0 3.972-.893z" class="cls-1" transform="translate(6.231 0.94)"/>
        <path id="Path_843" d="M419.895 74.006a8.205 8.205 0 0 0-4.109-1.108 8.038 8.038 0 1 0 0 16.074 8.211 8.211 0 0 0 3.545-.811v.818h4.206V74.006zm-4.109 11.026a4.1 4.1 0 0 1 0-8.192 3.845 3.845 0 0 1 3.545 2.287v3.618a3.845 3.845 0 0 1-3.545 2.286z" class="cls-1" transform="translate(7.792 0.968)"/>
        <path id="Path_844" d="M428.318 75.444v-8.189H424.1v22.479h4.22v-1.141m0-4.065V79.51" class="cls-1" transform="translate(10.09 0.181)"/>
        <path id="Path_845" d="M436.856 78.971l-1.447-.431c-1.325-.338-1.51-.863-1.51-1.323 0-.709.8-1.048 1.541-1.048a3.239 3.239 0 0 1 2.518 1.251l1.519-3.539a6.454 6.454 0 0 0-3.976-1.192c-3.3 0-5.7 1.819-5.789 4.651-.093 2.37 1.416 4.186 4.249 4.926l1.139.277c1.693.463 2.062.832 2.062 1.479 0 .769-.832 1.108-1.694 1.108a3.953 3.953 0 0 1-3.351-1.651l-1.623 3.78a8.062 8.062 0 0 0 4.974 1.505c3.326 0 5.852-2.064 5.852-5.018 0-2.679-1.725-4.035-4.466-4.774" class="cls-1" transform="translate(10.872 0.939)"/>
        <path id="Path_846" fill="#fff" fill-rule="evenodd" d="M370.067 89.621l-6.12-8.833a7.915 7.915 0 0 0-1.067-14.473l-1.874 4.618a3 3 0 0 1 1.154.627 3.065 3.065 0 0 1 .251.251 2.99 2.99 0 0 1-2.243 4.973h-1.411l-1.976 5.043 1.5-.033 6.062 7.824z" opacity="0.5" transform="translate(0.701 0.05)"/>
        <path id="Path_847" d="M363.043 66.207a7.977 7.977 0 0 0-1.992-.251c-.1 0-2.514 0-4.313.006h-4.979V89.6h4.979V70.929h4.313a3.024 3.024 0 0 1 .655.055l1.874-4.618c-.174-.06-.356-.113-.537-.159z" class="cls-1" transform="translate(0 0)"/>
        <path id="Path_848" fill="#fff" d="M383.735 83.043l-1.9-1.9-2.549 2.547a3.958 3.958 0 0 1-.39.391 4.411 4.411 0 0 1-4.181.918l5.488-5.488 2.774-2.773a8.08 8.08 0 1 0-11.034 11.032 8.078 8.078 0 0 0 4.037 1.081 8.035 8.035 0 0 0 5.281-1.966l3.16-3.16zm-11.84-.612a4.407 4.407 0 0 1 5.343-5.885 3.793 3.793 0 0 1 .4.139l-.13.132z" transform="translate(2.252 0.94)"/>
    </g>
</svg>
