<svg xmlns="http://www.w3.org/2000/svg" xmlns:xlink="http://www.w3.org/1999/xlink" width="96" height="23" viewBox="0 0 96 23">
    <defs>
        <path id="a54dbbyo5a" d="M0 0.009L4.729 0.009 4.729 22.455 0 22.455z"/>
    </defs>
    <g fill="none" fill-rule="evenodd" transform="translate(.2)">
        <g fill="#3C3739">
            <path d="M6.754 11.004c-1.9 0-2.749-1.093-2.749-3.198V0H0v8.478c0 4.25 2.792 6.62 6.534 6.62.078 0 .147-.011.22-.017v-4.077z" transform="rotate(-180 24.041 11.233)"/>
            <path d="M6.576 11.004c1.9 0 2.749-1.093 2.749-3.198V0h4.005v8.478c0 4.25-2.792 6.62-6.534 6.62-.078 0-.147-.011-.22-.017v-4.077z" transform="rotate(-180 24.041 11.233)"/>
        </g>
        <path fill="#3C3739" d="M58.96 18.515c-.44.234-1.228.497-2.018.497-1.491 0-2.222-.672-2.222-2.456v-5.204h4.415v-3.51H48.563l1.518 3.51h.632v5.994c0 3.597 2.399 5.293 5.674 5.293 1.49 0 3.07-.468 3.772-.848l-1.2-3.276z"/>
        <path fill="#0BB6B0" d="M50.719 2.236H54.713V6.23H50.719z"/>
        <path fill="#3C3739" d="M71.645 15.118v-3.035m-.08-2.795v-.72h3.994v14.218h-3.994v-5.18"/>
        <path fill="#3C3739" d="M68.2 22.78c1.503 0 2.905-.424 4.091-1.15v-4.587l-.642-.344c-.585 1.374-1.812 2.339-3.45 2.339-2.105 0-3.713-1.638-3.713-3.89 0-2.252 1.608-3.889 3.713-3.889 1.638 0 2.865.965 3.45 2.34l.642-.345V8.668c-1.186-.727-2.588-1.152-4.092-1.152-4.327 0-7.748 3.216-7.748 7.633 0 4.415 3.421 7.631 7.748 7.631M82.28 17.422v-4.765m0-3.862V1.02h-4.005v21.345h4.006v-1.082"/>
        <g fill="#3C3739">
            <path stroke="#3C3739" stroke-width=".799" d="M3.486 9.042c-.15.15-.156.154-.233-.041-.36-.832-.454-1.69-.275-2.582.295-1.379 1.103-2.355 2.305-3.03.607-.344 1.289-.469 2.01-.48.583.017 1.164.132 1.72.382.177.082.177.082.04.217C7.199 5.352 5.342 7.2 3.486 9.042m9.772 2.118c-.442-.436-.868-.878-1.316-1.312-.153-.152-.299-.324-.487-.457-.059.063-.122.122-.19.179-.457.439-.868.917-1.377 1.297-.727.547-1.54.82-2.44.852-.66.028-1.293-.107-1.894-.387-.134-.056-.127-.088-.034-.172 1.858-1.86 3.716-3.72 5.574-5.574.766-.773 1.531-1.548 2.304-2.308.088-.078.095-.138 0-.217-.154-.145-.303-.305-.452-.46-.72-.75-1.493-1.425-2.449-1.875C9.533.279 8.521.027 7.461.002 6.69-.018 5.94.09 5.198.31c-.484.149-.95.33-1.397.575-.752.416-1.42.946-1.991 1.594-.524.59-.945 1.238-1.245 1.97-.5 1.225-.672 2.51-.5 3.827.161 1.237.582 2.37 1.322 3.377.6.811 1.337 1.48 2.209 1.993.48.28.988.502 1.52.67.751.245 1.533.347 2.316.333.77-.016 1.53-.143 2.265-.398.88-.306 1.672-.764 2.376-1.372.493-.41.92-.884 1.374-1.33.027-.029.059-.105.059-.105-.089-.09-.157-.2-.248-.284z" transform="translate(17.891 7.61)"/>
            <path d="M15.144 9.931L15.144 10.863 11.406 10.863 11.406 8.307 15.144 8.307 15.144 8.436" transform="translate(17.891 7.61) rotate(43 13.275 9.585)"/>
        </g>
        <path fill="#3C3739" d="M91.132 13.256l-1.374-.41c-1.258-.321-1.433-.818-1.433-1.256 0-.673.76-.995 1.462-.995.922 0 1.734.412 2.392 1.188l1.442-3.361c-1.005-.748-2.254-1.131-3.775-1.131-3.13 0-5.41 1.726-5.497 4.416-.088 2.25 1.345 3.976 4.035 4.678l1.082.263c1.608.44 1.958.79 1.958 1.404 0 .73-.79 1.052-1.608 1.052-1.345 0-2.497-.569-3.183-1.568l-1.54 3.59c1.247.957 2.885 1.428 4.723 1.428 3.158 0 5.556-1.959 5.556-4.765 0-2.544-1.638-3.831-4.24-4.533"/>
        <path fill="#0BB6B0" d="M6.55 14.698L12.614 22.524 18.051 22.524 11.741 13.418z"/>
        <mask id="lhd6wc35db" fill="#fff">
            <use xlink:href="#a54dbbyo5a"/>
        </mask>
        <path fill="#3C3739" d="M4.729 22.455V.01h-4.73l.006 22.446H4.73z" mask="url(#lhd6wc35db)"/>
        <path fill="#3C3739" d="M12.374.912c-.524-.28-1.064-.525-1.658-.67C10.122.1 9.477.006 8.824.006c-.153 0-5.788.005-5.938.013l-2.03 4.71h7.968c.69-.038 1.267.234 1.751.614l1.799-4.43z"/>
        <path fill="#0BB6B0" d="M15.987 5.612c-.084-.329-.19-.648-.316-.958-.277-.683-.65-1.315-1.105-1.882C13.955 2.01 13.2 1.369 12.343.89c-.355-.198-.731-.357-1.117-.496l-1.78 4.385c.41.12.787.319 1.097.595.084.074.163.154.238.238.444.501.714 1.16.714 1.882 0 1.569-1.274 2.84-2.844 2.84l-1.339.003-1.876 4.789 3.215-.07c3.176 0 5.896-1.952 7.02-4.722.357-.877.552-1.835.552-2.84 0-.65-.081-1.28-.236-1.882"/>
    </g>
</svg>
