<svg xmlns="http://www.w3.org/2000/svg" width="40.998" height="30.604" viewBox="0 0 40.998 30.604">
    <path data-name="Rectangle 634" style="fill:none" d="M0 0h40.998v30.604H0z"/>
    <g data-name="Group 758">
        <path data-name="Path 618" d="M837.9 370.73h.987a.123.123 0 0 1 .131.079c.405.786.808 1.57 1.215 2.351.271.508.519 1.021.8 1.526s.513.993.77 1.488c.01.021.011.051.04.051s.04-.03.05-.053c.378-.731.76-1.458 1.137-2.185.261-.5.513-.993.765-1.491.282-.557.567-1.118.861-1.675a.16.16 0 0 1 .161-.092h2c.078 0 .092.019.052.09-.246.467-.489.939-.732 1.4-.282.54-.559 1.078-.841 1.615-.2.387-.407.778-.608 1.165q-.382.741-.769 1.483c-.33.635-.663 1.269-.989 1.908-.345.66-.692 1.319-1.033 1.975-.016.026-.016.067-.051.07s-.052-.044-.063-.07a110.37 110.37 0 0 1-.494-.955c-.342-.657-.684-1.312-1.023-1.975-.27-.521-.54-1.047-.817-1.575l-.942-1.814c-.229-.435-.449-.88-.675-1.317-.261-.505-.525-1.005-.786-1.507a22.377 22.377 0 0 0-.21-.407c-.041-.07-.023-.09.057-.09z" transform="translate(-806.819 -361.065)" style="fill-rule:evenodd;fill:#1caba2"/>
        <path data-name="Path 619" d="M589.046 372.788a.816.816 0 0 0 .142.31q.568 1.117 1.149 2.232c.129.256.262.505.391.757.011.022.017.052.042.052.045 0 .046-.038.057-.063.192-.374.385-.751.576-1.129.325-.616.637-1.227.957-1.841.372-.715.722-1.436 1.108-2.145a1.525 1.525 0 0 0 .086-.175c.047-.132.143-.149.266-.148.636.007 1.268 0 1.9 0 .12 0 .124 0 .069.107-.2.383-.394.764-.6 1.146-.278.533-.553 1.069-.832 1.6s-.567 1.09-.85 1.635c-.287.561-.583 1.123-.871 1.684-.334.642-.668 1.277-1 1.923-.261.5-.515 1-.776 1.489-.025.048-.039.123-.1.123s-.058-.075-.077-.121q-.469-.9-.93-1.8a483.06 483.06 0 0 0-.982-1.869c-.277-.533-.547-1.066-.821-1.6-.054-.1-.109-.2-.161-.305-.017-.043-.038-.043-.076-.031a.993.993 0 0 0-.147-.348c-.118-.249-.26-.488-.376-.74a.418.418 0 0 0-.151-.2c.052-.071.008-.129-.024-.189-.294-.569-.591-1.14-.887-1.707-.116-.234-.245-.465-.361-.7-.05-.092-.046-.1.061-.1h1.973a.142.142 0 0 1 .151.1c.156.315.327.629.487.945.036.067.065.053.111.019-.033.124.043.216.092.313.143.258.275.519.404.776z" transform="translate(-566.463 -360.975)" style="fill-rule:evenodd;fill:#1caba2"/>
        <path data-name="Path 620" d="M209.21 378.7c0-.795-.012-1.592 0-2.388a4.657 4.657 0 0 1 .344-1.7 4.793 4.793 0 0 1 1.266-1.8 4.9 4.9 0 0 1 2.029-1.083 4.505 4.505 0 0 1 1-.149c.366-.02.736 0 1.1-.016.076 0 .107.016.107.1q-.01.876 0 1.75c0 .081-.032.1-.107.1-.344 0-.684 0-1.029.007a2.787 2.787 0 0 0-1.455.477 2.873 2.873 0 0 0-1.2 1.68 2.283 2.283 0 0 0-.093.659v4.819c0 .1-.023.131-.13.131h-1.719c-.093 0-.126-.025-.126-.125.013-.822.013-1.644.013-2.462z" transform="translate(-205.991 -361.86)" style="fill-rule:evenodd;fill:#1caba2"/>
        <path data-name="Path 621" d="M541.164 433.75a.064.064 0 0 1 .086.027c.1.164.17.34.261.507.121.215.227.437.346.65.029.047-.02.068-.018.1-.187.3-.4.575-.609.858q-.674.946-1.354 1.888c-.218.3-.436.607-.657.911a.264.264 0 0 1-.042.041c-.013.006-.027.013-.039-.006a4.037 4.037 0 0 0-.4-.42c-.272-.278-.554-.55-.831-.826-.032-.035-.09-.047-.095-.11.183-.2.365-.4.544-.6.395-.424.779-.845 1.169-1.267q.641-.687 1.283-1.384c.121-.119.239-.244.356-.369z" transform="translate(-520.579 -421.39)" style="fill:#0e6567;fill-rule:evenodd"/>
        <path data-name="Path 622" d="M651.073 260c-.08-.055-.1-.151-.141-.229-.135-.24-.254-.49-.386-.729-.036-.075.046-.083.04-.13.352-.381.705-.766 1.061-1.147.388-.423.775-.847 1.165-1.265.249-.271.5-.541.751-.812 0-.031 0-.06.027-.082.249-.239.469-.516.714-.761a.187.187 0 0 1 .094-.057c.151-.164.3-.322.446-.484.439-.48.884-.956 1.32-1.433a.179.179 0 0 1 .063-.05 1.429 1.429 0 0 1-.206.314l-1.487 2.064q-1.011 1.407-2.03 2.814c-.458.651-.93 1.293-1.392 1.943-.012.017-.025.03-.039.044z" transform="translate(-628.489 -248.19)" style="fill:#106565;fill-rule:evenodd"/>
        <path data-name="Path 623" d="M318.5 776.969a.605.605 0 0 1-.753.589 11.694 11.694 0 0 1-1.608-.591c-.158-.069-.3-.147-.463-.218a.62.62 0 0 1-.289-.828.607.607 0 0 1 .819-.295c.255.119.505.234.76.339.37.155.749.282 1.126.408a.6.6 0 0 1 .408.596z" transform="translate(-307.586 -748.625)" style="fill:#6c6c6c;fill-rule:evenodd"/>
        <path data-name="Path 624" d="M243.438 213.507a.605.605 0 0 1-.287.573 12.486 12.486 0 0 0-1.5 1.161.626.626 0 1 1-.9-.874c.2-.189.422-.371.638-.549.33-.267.676-.517 1.028-.758a.64.64 0 0 1 .765-.021.56.56 0 0 1 .256.468z" transform="translate(-236.016 -209.994)" style="fill:#6c6c6c;fill-rule:evenodd"/>
        <path data-name="Path 625" d="M606.44 198.216a.625.625 0 0 1-1 .515 13.249 13.249 0 0 0-1.672-1.054.623.623 0 0 1 .578-1.1 13.707 13.707 0 0 1 1.855 1.17.578.578 0 0 1 .239.469z" transform="translate(-583.396 -194.274)" style="fill:#6b6b6b;fill-rule:evenodd"/>
        <path data-name="Path 626" d="M235.947 720.433a.615.615 0 0 1 .48.16 13.982 13.982 0 0 0 1.417 1.167 1.079 1.079 0 0 1 .269.221.621.621 0 0 1-.02.786.611.611 0 0 1-.8.122 12.477 12.477 0 0 1-1.345-1.045 3.423 3.423 0 0 1-.439-.418.594.594 0 0 1-.058-.659.57.57 0 0 1 .496-.334z" transform="translate(-231.05 -695.845)" style="fill:#6c6c6c;fill-rule:evenodd"/>
        <path data-name="Path 627" d="M176.238 643.754a.632.632 0 0 1 .552.318 11.83 11.83 0 0 0 .654 1.036c.144.209.3.411.445.613a.606.606 0 0 1 .076.65.6.6 0 0 1-.538.357.564.564 0 0 1-.5-.207 13.258 13.258 0 0 1-1.233-1.85.626.626 0 0 1 .544-.917z" transform="translate(-173.845 -622.438)" style="fill:#6c6c6c;fill-rule:evenodd"/>
        <path data-name="Path 628" d="M142.757 364.326a4.433 4.433 0 0 1 .167-.711 15.007 15.007 0 0 1 .5-1.468.633.633 0 0 1 .822-.373.617.617 0 0 1 .345.81 13.691 13.691 0 0 0-.6 1.9.627.627 0 0 1-.665.473.615.615 0 0 1-.543-.487c-.018-.05-.018-.096-.026-.144z" transform="translate(-142.38 -352.45)" style="fill:#6c6c6c;fill-rule:evenodd"/>
        <path data-name="Path 629" d="M514.981 166.14a.612.612 0 0 1-.83.587 11.465 11.465 0 0 0-1.713-.46 1.038 1.038 0 0 1-.475-.164.64.64 0 0 1-.187-.709.619.619 0 0 1 .563-.395 3.375 3.375 0 0 1 .753.132 14.066 14.066 0 0 1 1.4.39.681.681 0 0 1 .454.371.474.474 0 0 1 .035.248z" transform="translate(-495.614 -164.114)" style="fill:#6c6c6c;fill-rule:evenodd"/>
        <path data-name="Path 630" d="M142.451 556.272a.618.618 0 0 1-.6-.458 15.391 15.391 0 0 1-.584-1.994.624.624 0 0 1 1.13-.495.967.967 0 0 1 .118.354 11.73 11.73 0 0 0 .52 1.725.623.623 0 0 1-.584.868z" transform="translate(-140.94 -535.591)" style="fill:#6c6c6c;fill-rule:evenodd"/>
        <path data-name="Path 631" d="M181.507 278.708a.687.687 0 0 1-.227.49 12.107 12.107 0 0 0-1.033 1.494.633.633 0 0 1-.855.237.617.617 0 0 1-.225-.86 13.573 13.573 0 0 1 1.215-1.745.624.624 0 0 1 .883-.138.6.6 0 0 1 .242.522z" transform="translate(-177.15 -272.351)" style="fill:#6c6c6c;fill-rule:evenodd"/>
        <path data-name="Path 632" d="M416.664 159.837a7.03 7.03 0 0 1 .717-.006.627.627 0 0 1 .629.621.611.611 0 0 1-.622.622c-.418-.014-.826.007-1.237.026a7.277 7.277 0 0 0-.738.072.626.626 0 0 1-.5-1.093.747.747 0 0 1 .442-.157 12.336 12.336 0 0 1 1.309-.085z" transform="translate(-402.71 -159.16)" style="fill:#6b6b6b;fill-rule:evenodd"/>
        <path data-name="Path 633" d="M323.98 172.3a.606.606 0 0 1 .62.493.613.613 0 0 1-.439.716 13.457 13.457 0 0 0-1.859.7.615.615 0 0 1-.854-.386.6.6 0 0 1 .316-.737 13 13 0 0 1 1.874-.716.739.739 0 0 1 .342-.07z" transform="translate(-313.419 -171.095)" style="fill:#6b6b6b;fill-rule:evenodd"/>
        <path data-name="Path 634" d="M135.2 456.978c-.025.378-.049.755-.044 1.136 0 .3.019.593.028.893a.6.6 0 0 1-.527.628.625.625 0 0 1-.687-.431 1.856 1.856 0 0 1-.043-.5 18.956 18.956 0 0 1-.007-1.093c.013-.248.017-.493.054-.742a.6.6 0 0 1 .692-.538.588.588 0 0 1 .535.619z" transform="translate(-133.911 -443.008)" style="fill:#6b6b6b;fill-rule:evenodd"/>
        <path data-name="Path 635" d="M410.408 805.535a12.516 12.516 0 0 1-1.817-.15.617.617 0 0 1-.493-.713.625.625 0 0 1 .7-.516 11.9 11.9 0 0 0 1.93.138.632.632 0 0 1 .634.4.616.616 0 0 1-.571.839c-.123-.005-.253.002-.383.002z" transform="translate(-396.39 -775.989)" style="fill:#6b6b6b;fill-rule:evenodd"/>
        <path data-name="Path 636" d="M684.134 256.323c-.194.168-.339.381-.53.56a2.02 2.02 0 0 1-.272.281c-.02.012-.023.042-.033.06 0-.005 0-.026-.012-.027-.248-.145-.362-.408-.539-.62-.274-.32-.541-.636-.832-.942a.9.9 0 0 1-.3-.444.645.645 0 0 1 .259-.667.621.621 0 0 1 .73.04 8.061 8.061 0 0 1 .78.825c.248.289.482.589.707.9a.117.117 0 0 0 .042.034z" transform="translate(-658.224 -249.723)" style="fill:#6b6b6b;fill-rule:evenodd"/>
        <path data-name="Path 637" d="M368.658 380.31c-.059-.06-.1-.133-.165-.189-.293-.289-.576-.582-.873-.871a2.552 2.552 0 0 0-.323-.3 1.558 1.558 0 0 1-.125.119 10.154 10.154 0 0 1-.915.861 2.791 2.791 0 0 1-1.619.565 2.675 2.675 0 0 1-1.257-.257c-.088-.037-.084-.058-.023-.114l3.7-3.7c.508-.513 1.016-1.027 1.528-1.532.059-.051.063-.092 0-.144-.1-.1-.2-.2-.3-.305a5.56 5.56 0 0 0-1.625-1.245 5.037 5.037 0 0 0-2.015-.48 4.806 4.806 0 0 0-1.5.2 4.749 4.749 0 0 0-2.248 1.439 4.543 4.543 0 0 0-.826 1.307 4.94 4.94 0 0 0-.333 2.54 4.749 4.749 0 0 0 .878 2.24 4.889 4.889 0 0 0 1.466 1.323 4.954 4.954 0 0 0 1.008.444 4.663 4.663 0 0 0 1.537.222 4.87 4.87 0 0 0 1.5-.264 4.813 4.813 0 0 0 1.577-.91c.327-.272.611-.587.912-.883.02-.016.05-.033.041-.066zm-6.649-1.595c-.1.1-.1.1-.154-.027a2.818 2.818 0 0 1-.183-1.714 2.935 2.935 0 0 1 1.529-2.01 2.732 2.732 0 0 1 1.334-.319 2.973 2.973 0 0 1 1.141.253c.118.055.118.055.026.144q-1.844 1.837-3.693 3.673z" transform="translate(-350.06 -362.966)" style="fill-rule:evenodd;fill:#1caba2"/>
    </g>
</svg>
